<svg xmlns:svg="http://www.w3.org/2000/svg" xmlns="http://www.w3.org/2000/svg" version="1.1" viewBox="0 0 1280 700.2" class="illustration" preserveAspectRatio="xMidYMax slice">
    <metadata/>
    <defs>
        <filter id="moon" x="-0.4" width="1.9" y="-0.4" height="1.8" color-interpolation-filters="sRGB">
            <feGaussianBlur stdDeviation="12.1"/>
        </filter>
    </defs>
    <g class="base">
        <path d="m1204.2 397c0 0-67.4 1.5-98.9 8.4-58.8 12.7-117 25.4-175.6 42.4-65.4 19-123.5 27.1-190.4 27.2-69.8 0-136.8-39.1-204.9-32.7-124.2 11.7-245.5 114.5-370.1 112.9-42.7-0.5-82 32.4-122.7 56.4-13.2 7.8-28.2 22.7-41.4 19.1l0 69.4 1279.8 0 0-291.6a51.7 51.7 0 0 1-4 1.3c-7.4 1.9-17.3 4.7-24.4 5.2-19.2 1.2-47.4-18-47.4-18z"
              class="st3"/>
        <rect height="329.1" width="574.2" y="294.8" x="565.6" class="st4"/>
        <polygon transform="translate(0,-4.7929688e-6)"
                 points="1139.7 294.8 565.4 294.8 565.4 294.8 669.2 268 1188.3 268 "
                 class="st5"/>
        <circle r="2.4" cy="346.5" cx="609.2" class="st6"/>
        <path d="m637.5 324c0 0-1.4 10.6-11.9 13.2l0 11.4-6.3 0 0-24.6z" class="st7"/>
        <rect height="41.1" width="22.7" y="387.4" x="882.1" class="st8"/>
        <rect height="41.1" width="22.7" y="453.7" x="590.5" class="st1"/>
        <rect height="41.1" width="22.7" y="453.7" x="674.1" class="st1"/>
        <rect height="41.1" width="22.7" y="453.7" x="757.7" class="st1"/>
        <rect height="41.1" width="22.7" y="453.7" x="841.3" class="st1"/>
        <rect height="41.1" width="22.7" y="453.7" x="924.9" class="st1"/>
        <rect height="41.1" width="22.7" y="387.4" x="631.3" class="st1"/>
        <rect height="41.1" width="22.7" y="387.4" x="714.9" class="st1"/>
        <rect height="41.1" width="22.7" y="387.4" x="798.5" class="st1"/>
        <rect height="41.1" width="22.7" y="387.4" x="965.7" class="st1"/>
        <rect height="41.1" width="22.7" y="387.4" x="1049.3" class="st1"/>
        <rect height="41.1" width="22.7" y="453.7" x="1008.5" class="st1"/>
        <rect height="41.1" width="22.7" y="453.7" x="1092.1" class="st1"/>
        <rect height="41.1" width="22.7" y="583.5" x="590.5" class="st1"/>
        <rect height="41.1" width="22.7" y="583.5" x="674.1" class="st1"/>
        <rect height="41.1" width="22.7" y="583.5" x="757.7" class="st1"/>
        <rect height="41.1" width="22.7" y="583.5" x="841.3" class="st1"/>
        <rect height="41.1" width="22.7" y="583.5" x="924.9" class="st1"/>
        <rect height="41.1" width="22.7" y="517.1" x="631.3" class="st1"/>
        <rect height="41.1" width="22.7" y="517.1" x="714.9" class="st1"/>
        <rect height="41.1" width="22.7" y="517.1" x="798.5" class="st1"/>
        <rect height="41.1" width="22.7" y="517.1" x="882.1" class="st1"/>
        <rect height="41.1" width="22.7" y="517.1" x="965.7" class="st1"/>
        <rect height="41.1" width="22.7" y="517.1" x="1049.3" class="st1"/>
        <rect height="41.1" width="22.7" y="583.5" x="1008.5" class="st1"/>
        <rect height="41.1" width="22.7" y="583.5" x="1092.1" class="st1"/>
        <rect height="41.1" width="22.7" y="324.2" x="590.5" class="st1"/>
        <rect height="41.1" width="22.7" y="324.2" x="674.1" class="st1"/>
        <rect height="41.1" width="22.7" y="324.2" x="757.7" class="st1"/>
        <rect height="41.1" width="22.7" y="324.2" x="841.3" class="st1"/>
        <rect height="41.1" width="22.7" y="324.2" x="924.9" class="st1"/>
        <rect height="41.1" width="22.7" y="324.2" x="1008.5" class="st1"/>
        <rect height="41.1" width="22.7" y="324.2" x="1092.1" class="st1"/>
        <rect height="24.6" width="36.4" y="324" x="624.6" class="st1"/>
        <circle r="2.4" cy="537.7" cx="815.7" class="st2"/>
        <circle r="2.4" cy="537.7" cx="900.5" class="st2"/>
        <circle r="2.4" cy="537.7" cx="983.2" class="st2"/>
        <circle r="2.4" cy="537.7" cx="1068.1" class="st2"/>
        <circle r="2.4" cy="537.7" cx="732.9" class="st2"/>
        <circle r="2.4" cy="537.7" cx="648.7" class="st2"/>
        <circle r="2.4" cy="602.2" cx="775.6" class="st2"/>
        <circle r="2.4" cy="602.2" cx="860.4" class="st2"/>
        <circle r="2.4" cy="602.2" cx="943.2" class="st2"/>
        <circle r="2.4" cy="602.2" cx="1027.5" class="st2"/>
        <circle r="2.4" cy="602.2" cx="1110.9" class="st2"/>
        <circle r="2.4" cy="602.2" cx="692.8" class="st2"/>
        <circle r="2.4" cy="602.2" cx="608.7" class="st2"/>
        <circle r="2.4" cy="408.1" cx="815.7" class="st2"/>
        <circle r="2.4" cy="408.1" cx="900.5" class="st2"/>
        <circle r="2.4" cy="408.1" cx="983.2" class="st2"/>
        <circle r="2.4" cy="408.1" cx="1068.1" class="st2"/>
        <circle r="2.4" cy="408.1" cx="732.9" class="st2"/>
        <circle r="2.4" cy="408.1" cx="648.7" class="st2"/>
        <circle r="2.4" cy="472.6" cx="775.6" class="st2"/>
        <circle r="2.4" cy="472.6" cx="860.4" class="st2"/>
        <circle r="2.4" cy="472.6" cx="943.2" class="st2"/>
        <circle r="2.4" cy="472.6" cx="1027.5" class="st2"/>
        <circle r="2.4" cy="472.6" cx="1110.9" class="st2"/>
        <circle r="2.4" cy="472.6" cx="692.8" class="st2"/>
        <circle r="2.4" cy="472.6" cx="608.7" class="st2"/>
        <circle r="2.4" cy="342.4" cx="775.6" class="st2"/>
        <circle r="2.4" cy="342.4" cx="860.4" class="st2"/>
        <circle r="2.4" cy="342.4" cx="943.2" class="st2"/>
        <circle r="2.4" cy="342.4" cx="1027.5" class="st2"/>
        <circle r="2.4" cy="342.4" cx="1110.9" class="st2"/>
        <circle r="2.4" cy="342.4" cx="692.8" class="st2"/>
        <circle r="2.4" cy="342.4" cx="608.7" class="st2"/>
        <path d="m904.9 472.8 0.4 0" class="st9"/>
        <rect height="24.6" width="36.4" y="583.6" x="707.6" class="st7"/>
        <rect height="21.6" width="37.4" y="453.8" x="622.6" class="st7"/>
        <rect height="24.6" width="36.4" y="388.2" x="749.9" class="st7"/>
        <rect height="24.6" width="36.4" y="388.2" x="833.2" class="st7"/>
        <rect height="24.6" width="36.4" y="388.1" x="666.1" class="st7"/>
        <rect height="24.6" width="36.4" y="387.5" x="917.6" class="st7"/>
        <rect height="24.6" width="36.4" y="387.5" x="1001.3" class="st7"/>
        <rect height="24.6" width="36.4" y="387.5" x="1084.3" class="st7"/>
        <rect height="24.6" width="36.4" y="453.8" x="708.8" class="st7"/>
        <rect height="24.6" width="36.4" y="453.8" x="792.5" class="st7"/>
        <rect height="24.6" width="36.4" y="453.4" x="875.8" class="st7"/>
        <rect height="24.6" width="36.4" y="453.8" x="960.1" class="st7"/>
        <rect height="24.6" width="36.4" y="453.8" x="1043.1" class="st7"/>
        <rect height="21.6" width="37.4" y="583.8" x="622.6" class="st7"/>
        <rect height="24.6" width="36.4" y="583.7" x="876.6" class="st7"/>
        <rect height="24.6" width="36.4" y="583.9" x="792.5" class="st7"/>
        <rect height="24.6" width="36.4" y="583.9" x="960.1" class="st7"/>
        <rect height="24.6" width="36.4" y="583.9" x="1043.1" class="st7"/>
        <rect height="21.6" width="37.4" y="517.6" x="581.6" class="st7"/>
        <rect height="24.6" width="36.4" y="517.7" x="750.3" class="st7"/>
        <rect height="24.6" width="36.4" y="517.7" x="917.9" class="st7"/>
        <rect height="24.6" width="36.4" y="517.2" x="1000.4" class="st7"/>
        <rect height="21.6" width="37.4" y="388.1" x="583" class="st7"/>
        <rect height="24.6" width="36.4" y="517.4" x="833.1" class="st7"/>
        <rect height="24.6" width="36.4" y="516.8" x="1084.3" class="st7"/>
        <rect height="24.6" width="36.4" y="324" x="708.8" class="st7"/>
        <rect height="24.6" width="36.4" y="324" x="792.5" class="st7"/>
        <rect height="24.6" width="36.4" y="324" x="876.4" class="st7"/>
        <rect height="24.6" width="36.4" y="324" x="960.1" class="st7"/>
        <rect height="24.6" width="36.4" y="324" x="1043.1" class="st7"/>
        <rect height="24.6" width="36.4" y="517.7" x="666.5" class="st7"/>
        <path d="m711.7 335.5 0 0.4" class="st10"/>
        <rect transform="matrix(0,1,-1,0,0,0)" height="36.7" width="21.4" y="-829.1" x="323.7"
              class="st11"/>
        <path d="m902 453.4c0 0 0.9 10.6 7.1 13.2l0 11.4 3.8 0 0-24.6zm-180.6 130.3c0 0 1.9 10.6 15.4 13.2l0 11.4 8.1 0 0-24.6zm9 0c0 0-1.9 10.6-15.4 13.2l0 11.4-8.1 0 0-24.6z"
              class="st11"/>
        <polygon transform="translate(0,-4.7929688e-6)"
                 points="750.1 517.7 750.1 542.2 750.1 542.2 759 542.2 760.3 517.7 "
                 class="st11"/>
        <rect height="21.6" width="8.9" y="453.8" x="651.1" class="st12"/>
        <rect transform="matrix(0,1,-1,0,0,0)" height="33.8" width="4.4" y="-744" x="323.8"
              class="st12"/>
        <rect transform="matrix(0,1,-1,0,0,0)" height="33.8" width="4.4" y="-744.1" x="330.1"
              class="st12"/>
        <rect transform="matrix(0,1,-1,0,0,0)" height="33.8" width="4.4" y="-952.7" x="388.3"
              class="st12"/>
        <rect transform="matrix(0,1,-1,0,0,0)" height="33.8" width="4.4" y="-952.7" x="394.6"
              class="st12"/>
        <rect transform="matrix(0,1,-1,0,0,0)" height="33.8" width="4.4" y="-952.7" x="401.2"
              class="st12"/>
        <rect height="24.6" width="8.9" y="324" x="1043.1" class="st12"/>
        <rect height="24.8" width="23.5" y="323.9" x="1056.1" class="st12"/>
        <polygon transform="translate(0,-4.7929688e-6)"
                 points="876.8 583.9 876.8 608.4 876.8 608.4 885.7 608.4 890.9 583.9 "
                 class="st12"/>
        <polygon transform="translate(0,-4.7929688e-6)"
                 points="913.4 583.9 913.4 608.4 913.4 608.4 904.5 608.4 899.2 583.9 "
                 class="st12"/>
        <rect height="24.7" width="18.3" y="584.4" x="978.5" class="st12"/>
        <rect height="3.5" width="13.4" y="419" x="719.5" class="st5"/>
        <rect height="3.5" width="13.4" y="357.9" x="930.2" class="st5"/>
        <rect height="20.2" width="9.1" y="392.1" x="887" class="st5"/>
        <rect height="7.2" width="13.4" y="416.5" x="887" class="st5"/>
        <rect height="3.5" width="13.4" y="547.9" x="886.7" class="st5"/>
        <rect height="3.5" width="13.4" y="615.8" x="846.8" class="st5"/>
        <path d="m637.1 324c0 0-1.5 10.6-11.9 13.2l0 11.4-6.3 0 0-24.6zm340.8-0.2c0 0-1.5 10.6-11.9 13.2l0 11.4-6.3 0 0-24.6zm0.3 0.1c0 0 1.5 10.6 11.9 13.2l0 11.4 6.3 0 0-24.6zm83.1 260c0 0 1.5 8.8 11.9 11l0 9.4 6.3 0 0-20.4zm-212.8-66.6c0 0 1.5 10.6 11.9 13.2l0 11.4 6.3 0 0-24.6z"
              class="st5"/>
        <rect height="8.5" width="37.3" y="517.3" x="1000.1" class="st5"/>
        <path d="m1002.1 526.7 0 0.4 -0.4-0.4 0 0.4" class="st5"/>
        <rect transform="matrix(0,1,-1,0,0,0)" height="33.8" width="4.4" y="-827.6" x="455.5"
              class="st5"/>
        <rect transform="matrix(0,1,-1,0,0,0)" height="33.8" width="11.2" y="-827.6" x="462.1"
              class="st5"/>
        <line y2="365.7" x2="1139.1" y1="365.7" x1="566.2"
              class="st13"/>
        <line y2="428.4" x2="1138.5" y1="428.4" x1="565.6"
              class="st13"/>
        <line y2="495" x2="1139.6" y1="495" x1="566.7"
              class="st13"/>
        <line y2="558.5" x2="1139.9" y1="558.5" x1="567"
              class="st13"/>
        <circle r="6.2" cy="463.9" cx="1103.4" class="st7"/>
        <circle r="6.2" cy="397.9" cx="808.9" class="st7"/>
        <polygon transform="translate(0,-4.7929688e-6)" points="335.7 700.2 328.3 700.2 332 681.9 332 681.9 "
                 class="st14"/>
        <polygon transform="translate(0,-4.7929688e-6)" points="900.9 700.2 914.9 700.2 907.9 681.9 907.9 681.9 "
                 class="st14"/>
        <polygon transform="translate(0,-4.7929688e-6)" points="909.8 700.2 919.9 700.2 914.8 689.1 914.8 689.1 "
                 class="st14"/>
        <polygon transform="translate(0,-4.7929688e-6)" points="535.2 700.2 549.2 700.2 542.2 681.9 542.2 681.9 "
                 class="st14"/>
        <polygon transform="translate(0,-4.7929688e-6)" points="544.1 700.2 554.2 700.2 549.2 689.1 549.2 689.1 "
                 class="st14"/>
        <polygon transform="translate(0,-4.7929688e-6)" points="579.6 700.2 597.6 700.2 588.6 681.9 588.6 681.9 "
                 class="st14"/>
        <polygon transform="translate(0,-4.7929688e-6)" points="548.7 700.2 564.6 700.2 556.6 674.7 556.6 674.7 "
                 class="st14"/>
        <polygon transform="translate(0,-4.7929688e-6)" points="599.7 700.2 617.7 700.2 608.7 689.1 608.7 689.1 "
                 class="st14"/>
        <polygon transform="translate(0,-4.7929688e-6)" points="612.6 700.2 620 700.2 616.3 681.9 616.3 681.9 "
                 class="st14"/>
        <polygon transform="translate(0,-4.7929688e-6)" points="621.8 700.2 633.6 700.2 627.7 681.9 627.7 681.9 "
                 class="st14"/>
        <polygon transform="translate(0,-4.7929688e-6)" points="640.5 700.2 649.5 700.2 645 690.6 645 690.6 "
                 class="st14"/>
        <polygon transform="translate(0,-4.7929688e-6)" points="630.5 700.2 641.5 700.2 636 678 636 678 "
                 class="st14"/>
        <polygon transform="translate(0,-4.7929688e-6)" points="756.1 700.2 738.1 700.2 747.1 681.9 747.1 681.9 "
                 class="st14"/>
        <polygon transform="translate(0,-4.7929688e-6)" points="737.4 700.2 729.9 700.2 733.7 681.9 733.7 681.9 "
                 class="st14"/>
        <polygon transform="translate(0,-4.7929688e-6)" points="728.2 700.2 710.2 700.2 719.2 681.9 719.2 681.9 "
                 class="st14"/>
        <polygon transform="translate(0,-4.7929688e-6)" points="718.2 700.2 702.3 700.2 710.3 674.7 710.3 674.7 "
                 class="st14"/>
        <polygon transform="translate(0,-4.7929688e-6)" points="708.1 700.2 690.1 700.2 699.1 689.1 699.1 689.1 "
                 class="st14"/>
        <polygon transform="translate(0,-4.7929688e-6)" points="695.2 700.2 687.8 700.2 691.5 681.9 691.5 681.9 "
                 class="st14"/>
        <polygon transform="translate(0,-4.7929688e-6)" points="686.1 700.2 674.2 700.2 680.1 681.9 680.1 681.9 "
                 class="st14"/>
        <polygon transform="translate(0,-4.7929688e-6)" points="667.3 700.2 658.3 700.2 662.8 690.6 662.8 690.6 "
                 class="st14"/>
        <polygon transform="translate(0,-4.7929688e-6)" points="677.3 700.2 666.3 700.2 671.8 678 671.8 678 "
                 class="st14"/>
        <polygon transform="translate(0,-4.7929688e-6)" points="762 700.2 780 700.2 771 681.9 771 681.9 "
                 class="st14"/>
        <polygon transform="translate(0,-4.7929688e-6)" points="780.8 700.2 788.2 700.2 784.5 681.9 784.5 681.9 "
                 class="st14"/>
        <polygon transform="translate(0,-4.7929688e-6)" points="789.9 700.2 808 700.2 798.9 681.9 798.9 681.9 "
                 class="st14"/>
        <polygon transform="translate(0,-4.7929688e-6)" points="799.9 700.2 815.8 700.2 807.9 674.7 807.9 674.7 "
                 class="st14"/>
        <polygon transform="translate(0,-4.7929688e-6)" points="810 700.2 828 700.2 819 689.1 819 689.1 "
                 class="st14"/>
        <polygon transform="translate(0,-4.7929688e-6)" points="822.9 700.2 830.3 700.2 826.6 681.9 826.6 681.9 "
                 class="st14"/>
        <polygon transform="translate(0,-4.7929688e-6)" points="832.1 700.2 843.9 700.2 838 681.9 838 681.9 "
                 class="st14"/>
        <polygon transform="translate(0,-4.7929688e-6)" points="850.8 700.2 859.8 700.2 855.3 690.6 855.3 690.6 "
                 class="st14"/>
        <polygon transform="translate(0,-4.7929688e-6)" points="840.8 700.2 851.9 700.2 846.3 678 846.3 678 "
                 class="st14"/>
        <polygon transform="translate(0,-4.7929688e-6)" points="1117.5 700.2 1135.5 700.2 1126.5 681.9 1126.5 681.9 "
                 class="st14"/>
        <polygon transform="translate(0,-4.7929688e-6)" points="914.4 700.2 930.3 700.2 922.3 674.7 922.3 674.7 "
                 class="st14"/>
        <polygon transform="translate(0,-4.7929688e-6)" points="1137.5 700.2 1155.6 700.2 1146.6 689.1 1146.6 689.1 "
                 class="st14"/>
        <polygon transform="translate(0,-4.7929688e-6)" points="1159.6 700.2 1171.5 700.2 1165.5 681.9 1165.5 681.9 "
                 class="st14"/>
        <polygon transform="translate(0,-4.7929688e-6)" points="1178.4 700.2 1187.4 700.2 1182.9 690.6 1182.9 690.6 "
                 class="st14"/>
        <polygon transform="translate(0,-4.7929688e-6)" points="1168.4 700.2 1179.4 700.2 1173.9 678 1173.9 678 "
                 class="st14"/>
        <polygon transform="translate(0,-4.7929688e-6)" points="354.5 700.2 336.4 700.2 345.4 681.9 345.4 681.9 "
                 class="st14"/>
        <polygon transform="translate(0,-4.7929688e-6)" points="306.5 700.2 288.4 700.2 297.4 689.1 297.4 689.1 "
                 class="st14"/>
        <polygon transform="translate(0,-4.7929688e-6)" points="372.7 700.2 390.7 700.2 381.7 681.9 381.7 681.9 "
                 class="st14"/>
        <polygon transform="translate(0,-4.7929688e-6)" points="391.5 700.2 398.9 700.2 395.2 681.9 395.2 681.9 "
                 class="st14"/>
        <polygon transform="translate(0,-4.7929688e-6)" points="400.6 700.2 418.7 700.2 409.6 681.9 409.6 681.9 "
                 class="st14"/>
        <polygon transform="translate(0,-4.7929688e-6)" points="410.6 700.2 426.5 700.2 418.6 674.7 418.6 674.7 "
                 class="st14"/>
        <polygon transform="translate(0,-4.7929688e-6)" points="420.7 700.2 438.7 700.2 429.7 689.1 429.7 689.1 "
                 class="st14"/>
        <polygon transform="translate(0,-4.7929688e-6)" points="433.6 700.2 441 700.2 437.3 681.9 437.3 681.9 "
                 class="st14"/>
        <polygon transform="translate(0,-4.7929688e-6)" points="442.8 700.2 454.6 700.2 448.7 681.9 448.7 681.9 "
                 class="st14"/>
        <polygon transform="translate(0,-4.7929688e-6)" points="461.6 700.2 470.5 700.2 466 690.6 466 690.6 "
                 class="st14"/>
        <polygon transform="translate(0,-4.7929688e-6)" points="451.5 700.2 462.6 700.2 457.1 678 457.1 678 "
                 class="st14"/>
        <rect height="31.5" width="15.4" y="621.8" x="1179.1" class="st17"/>
        <rect height="37.2" width="9.7" y="622.9" x="1152.7" class="st18"/>
        <rect height="24" width="11.7" y="476.5" x="1196.6" class="st17"/>
        <rect height="31.5" width="15.4" y="501.3" x="1212.9" class="st17"/>
        <rect height="31.5" width="15.4" y="500.8" x="436.3" class="st17"/>
        <rect height="37.2" width="9.7" y="603.5" x="475" class="st19"/>
        <polygon transform="translate(0,-4.7929688e-6)" points="1166.1 645.4 1211.2 645.4 1188.7 547 1188.7 547 "
                 class="st16"/>
        <circle r="32.2" cy="610.3" cx="1157.6" class="st14"/>
        <polygon transform="translate(0,-4.7929688e-6)" points="1185.7 494.5 1220 494.5 1202.9 419.6 1202.9 419.6 "
                 class="st16"/>
        <polygon transform="translate(0,-4.7929688e-6)" points="1200.5 526.9 1239.2 526.9 1219.9 442.4 1219.9 442.4 "
                 class="st16"/>
        <polygon transform="translate(0,-4.7929688e-6)" points="423.3 524.5 468.4 524.5 445.9 426 445.9 426 "
                 class="st16"/>
        <circle r="32.2" cy="590.9" cx="479.8" class="st14"/>
        <circle r="58.4" cy="107.6" cx="540.8" class="st20 sun"/>
    </g>
    <g class="stars">
        <g transform="translate(-3.4161414e-6,0.20001053)">
            <g>
                <line x1="1215.5" y1="335.4" x2="1223" y2="330.6"
                      class="st15"/>
                <line x1="1219.6" y1="332.7" x2="1218.6" y2="328.9"
                      class="st15"/>
                <line x1="1219.6" y1="332.7" x2="1224.7" y2="335"
                      class="st15"/>
                <line x1="1219.6" y1="332.7" x2="1219.5" y2="337"
                      class="st15"/>
            </g>
            <g>
                <line x1="1252.1" y1="309.1" x2="1251.1" y2="299"
                      class="st15"/>
                <line x1="1251.7" y1="304.8" x2="1256.9" y2="299.5"
                      class="st15"/>
                <line x1="1251.7" y1="304.8" x2="1257.9" y2="305.7"
                      class="st15"/>
                <line x1="1251.7" y1="304.8" x2="1245.8" y2="308.6"
                      class="st15"/>
            </g>
            <g>
                <g style="fill-opacity:0.6;fill:#000;filter:url(#moon)">
                    <path
                            d="m1139.5 141.1c-2.2-1.3-4.4-2.4-6.5-3.2 13.3 13 18.6 34.8 5.1 50.7-11.6 13.6-30.9 15.9-46.2 10.1 14.8 15.1 44.6 17.2 60.2-1.1 15.8-18.6 5.9-45.4-12.6-56.5z"
                            style="fill-opacity:0.6;fill:#000"/>
                </g>
                <g>
                    <path
                            d="m1139.5 141.1c-2.2-1.3-4.4-2.4-6.5-3.2 13.3 13 18.6 34.8 5.1 50.7-11.6 13.6-30.9 15.9-46.2 10.1 14.8 15.1 44.6 17.2 60.2-1.1 15.8-18.6 5.9-45.4-12.6-56.5z"
                            class="st7"/>
                </g>
            </g>
            <g>
                <line x1="982.5" y1="153.2" x2="971.9" y2="159.3"
                      class="st15"/>
                <line x1="973.3" y1="153.9" x2="977.9" y2="164"
                      class="st15"/>
                <line x1="978.3" y1="150.7" x2="972.9" y2="164.5"
                      class="st15"/>
            </g>
            <g>
                <line x1="1215.5" y1="335.4" x2="1223" y2="330.6"
                      class="st15"/>
                <line x1="1219.6" y1="332.7" x2="1218.6" y2="328.9"
                      class="st15"/>
                <line x1="1219.6" y1="332.7" x2="1224.7" y2="335"
                      class="st15"/>
                <line x1="1219.6" y1="332.7" x2="1219.5" y2="337"
                      class="st15"/>
            </g>
            <g>
                <line x1="832.7" y1="150.6" x2="828.3" y2="154.7"
                      class="st15"/>
                <line x1="830.4" y1="152.7" x2="833.9" y2="157.1"
                      class="st15"/>
                <line x1="830.4" y1="152.7" x2="837.4" y2="153.2"
                      class="st15"/>
                <line x1="830.4" y1="152.7" x2="828.5" y2="148.4"
                      class="st15"/>
            </g>
            <g>
                <line x1="160.9" y1="101.1" x2="155.7" y2="107.8"
                      class="st15"/>
                <line x1="155.7" y1="101.4" x2="158.2" y2="104.5"
                      class="st15"/>
                <line x1="158.2" y1="104.5" x2="162.9" y2="103.8"
                      class="st15"/>
                <line x1="158.2" y1="104.5" x2="162.4" y2="107.3"
                      class="st15"/>
            </g>
            <g>
                <line x1="808.2" y1="194.1" x2="815.3" y2="199"
                      class="st15"/>
                <line x1="813.6" y1="193.3" x2="812.6" y2="197.1"
                      class="st15"/>
                <line x1="812.6" y1="197.1" x2="806.7" y2="197.5"
                      class="st15"/>
                <line x1="812.6" y1="197.1" x2="813.4" y2="201.2"
                      class="st15"/>
                <line x1="812.6" y1="197.1" x2="808.7" y2="200.2"
                      class="st15"/>
            </g>
            <g>
                <line x1="447.9" y1="175.7" x2="453.1" y2="175.7"
                      class="st15"/>
                <line x1="453.1" y1="175.7" x2="449.9" y2="171.3"
                      class="st15"/>
                <line x1="453.1" y1="175.7" x2="456.8" y2="173"
                      class="st15"/>
                <line x1="453.3" y1="173" x2="453.6" y2="179.7"
                      class="st15"/>
            </g>
            <g>
                <line x1="808" y1="117.5" x2="808.6" y2="124.2"
                      class="st15"/>
                <line x1="808.3" y1="120.8" x2="812.1" y2="118.7"
                      class="st15"/>
                <line x1="808.3" y1="120.8" x2="804.2" y2="121.6"
                      class="st15"/>
            </g>
            <g>
                <line x1="709.4" y1="176.4" x2="708.4" y2="166.3"
                      class="st15"/>
                <line x1="708.9" y1="172.1" x2="714.2" y2="166.8"
                      class="st15"/>
                <line x1="708.9" y1="172.1" x2="715.1" y2="173"
                      class="st15"/>
                <line x1="708.9" y1="172.1" x2="703.1" y2="175.9"
                      class="st15"/>
            </g>
            <g>
                <line x1="731.5" y1="148.9" x2="727.7" y2="140.2"
                      class="st15"/>
                <line x1="729.6" y1="144.5" x2="735.9" y2="142.2"
                      class="st15"/>
                <line x1="729.6" y1="144.5" x2="720.4" y2="144.6"
                      class="st15"/>
            </g>
            <g>
                <line x1="1173.1" y1="137.4" x2="1178.3" y2="137.4"
                      class="st15"/>
                <line x1="1178.3" y1="137.4" x2="1175.1" y2="132.9"
                      class="st15"/>
                <line x1="1178.3" y1="137.4" x2="1182" y2="134.6"
                      class="st15"/>
                <line x1="1178.5" y1="134.6" x2="1178.8" y2="141.3"
                      class="st15"/>
            </g>
            <g>
                <line x1="421.6" y1="71.1" x2="420.7" y2="61"
                      class="st15"/>
                <line x1="421.2" y1="66.8" x2="426.5" y2="61.5"
                      class="st15"/>
                <line x1="421.2" y1="66.8" x2="427.4" y2="67.8"
                      class="st15"/>
                <line x1="421.2" y1="66.8" x2="415.4" y2="70.6"
                      class="st15"/>
            </g>
            <g>
                <line x1="183.7" y1="465.3" x2="182.7" y2="455.2"
                      class="st15"/>
                <line x1="183.3" y1="460.9" x2="188.5" y2="455.6"
                      class="st15"/>
                <line x1="183.3" y1="460.9" x2="189.5" y2="461.9"
                      class="st15"/>
                <line x1="183.3" y1="460.9" x2="177.4" y2="464.8"
                      class="st15"/>
            </g>
            <g>
                <line x1="580.3" y1="222.3" x2="579.3" y2="212.2"
                      class="st15"/>
                <line x1="579.9" y1="218" x2="585.1" y2="212.7"
                      class="st15"/>
                <line x1="579.9" y1="218" x2="586.1" y2="219"
                      class="st15"/>
                <line x1="579.9" y1="218" x2="574" y2="221.9"
                      class="st15"/>
            </g>
            <g>
                <line x1="1252.1" y1="309.1" x2="1251.1" y2="299"
                      class="st15"/>
                <line x1="1251.7" y1="304.8" x2="1256.9" y2="299.5"
                      class="st15"/>
                <line x1="1251.7" y1="304.8" x2="1257.9" y2="305.7"
                      class="st15"/>
                <line x1="1251.7" y1="304.8" x2="1245.8" y2="308.6"
                      class="st15"/>
            </g>
        </g>
    </g>
</svg>